<?xml version="1.0" encoding="UTF-8"?>
<svg xmlns="http://www.w3.org/2000/svg" xmlns:xlink="http://www.w3.org/1999/xlink" width="252pt" height="252pt" viewBox="0 0 252 252" version="1.1">
<g id="surface1">
<path style=" stroke:none;fill-rule:evenodd;fill:rgb(29.411765%,0%,50.196078%);fill-opacity:1;" d="M 33.945312 102.789062 L 59.242188 102.789062 L 59.242188 65.964844 L 105.996094 65.964844 L 105.996094 51.875 L 127.769531 51.875 L 127.769531 102.789062 L 149.863281 102.789062 L 77.171875 158.507812 L 77.171875 137.691406 C 62.441406 134.167969 32.660156 131.289062 33.945312 102.789062 Z M 103.75 99.265625 C 102.789062 99.265625 102.148438 100.226562 102.148438 101.1875 C 102.148438 102.148438 102.789062 102.789062 103.75 102.789062 C 104.710938 102.789062 105.671875 102.148438 105.671875 101.1875 C 105.671875 100.226562 104.710938 99.265625 103.75 99.265625 Z M 103.75 94.144531 C 102.789062 94.144531 102.148438 94.785156 102.148438 95.742188 C 102.148438 96.703125 102.789062 97.664062 103.75 97.664062 C 104.710938 97.664062 105.671875 96.703125 105.671875 95.742188 C 105.671875 94.785156 104.710938 94.144531 103.75 94.144531 Z M 103.75 88.699219 C 102.789062 88.699219 102.148438 89.660156 102.148438 90.621094 C 102.148438 91.582031 102.789062 92.222656 103.75 92.222656 C 104.710938 92.222656 105.671875 91.582031 105.671875 90.621094 C 105.671875 89.660156 104.710938 88.699219 103.75 88.699219 Z M 103.75 83.582031 C 102.789062 83.582031 102.148438 84.222656 102.148438 85.179688 C 102.148438 86.140625 102.789062 87.101562 103.75 87.101562 C 104.710938 87.101562 105.671875 86.140625 105.671875 85.179688 C 105.671875 84.214844 104.710938 83.582031 103.75 83.582031 Z M 103.75 78.132812 C 102.789062 78.132812 102.148438 79.09375 102.148438 80.054688 C 102.148438 81.015625 102.789062 81.65625 103.75 81.65625 C 104.710938 81.65625 105.671875 81.015625 105.671875 80.054688 C 105.671875 79.09375 104.710938 78.132812 103.75 78.132812 Z M 103.75 73.007812 C 102.789062 73.007812 102.148438 73.648438 102.148438 74.609375 C 102.148438 75.570312 102.789062 76.53125 103.75 76.53125 C 104.710938 76.53125 105.671875 75.570312 105.671875 74.609375 C 105.671875 73.648438 104.710938 73.007812 103.75 73.007812 Z M 103.75 67.566406 C 102.789062 67.566406 102.148438 68.527344 102.148438 69.488281 C 102.148438 70.445312 102.789062 71.085938 103.75 71.085938 C 104.710938 71.085938 105.671875 70.445312 105.671875 69.488281 C 105.671875 68.527344 104.710938 67.566406 103.75 67.566406 Z M 65.644531 102.789062 L 94.464844 102.789062 L 94.464844 99.265625 L 65.644531 99.265625 Z M 110.152344 70.125 L 110.152344 94.464844 L 121.679688 94.464844 L 121.679688 90.300781 L 113.996094 90.300781 L 113.996094 84.535156 L 121.679688 84.535156 L 121.679688 80.375 L 113.996094 80.375 L 113.996094 74.609375 L 121.679688 74.609375 L 121.679688 70.125 Z M 65.644531 94.144531 L 65.644531 97.664062 L 94.464844 97.664062 L 94.464844 94.144531 Z M 65.644531 88.699219 L 65.644531 92.222656 L 94.464844 92.222656 L 94.464844 88.699219 Z M 65.644531 83.582031 L 65.644531 87.101562 L 94.464844 87.101562 L 94.464844 83.582031 Z M 65.644531 78.132812 L 65.644531 81.976562 L 94.464844 81.976562 L 94.464844 78.132812 Z M 65.644531 73.007812 L 65.644531 76.53125 L 94.464844 76.53125 L 94.464844 73.007812 Z M 65.644531 67.566406 L 65.644531 71.40625 L 94.464844 71.40625 L 94.464844 67.566406 Z M 65.644531 67.566406 "/>
<path style=" stroke:none;fill-rule:evenodd;fill:rgb(29.411765%,0%,50.196078%);fill-opacity:1;" d="M 97.023438 163.628906 L 190.527344 163.628906 L 190.527344 188.925781 L 98.945312 188.925781 C 96.0625 178.359375 89.660156 174.195312 85.175781 171.960938 C 89.980469 170.035156 94.464844 166.191406 97.023438 163.628906 Z M 170.035156 182.84375 C 173.875 182.84375 176.757812 180.917969 176.757812 178.355469 C 176.757812 175.476562 173.875 173.554688 170.035156 173.554688 C 168.753906 173.554688 167.792969 173.871094 166.511719 174.195312 C 166.511719 173.875 166.511719 173.875 166.511719 173.554688 C 166.511719 171.953125 168.113281 170.675781 170.035156 170.675781 C 171.636719 170.675781 172.59375 171.316406 173.234375 172.273438 L 176.757812 172.273438 C 176.117188 170.035156 173.554688 168.109375 170.035156 168.109375 C 166.511719 168.109375 163.628906 170.035156 163.628906 172.910156 C 163.628906 174.832031 163.628906 176.113281 163.628906 178.355469 C 163.628906 180.921875 166.511719 182.84375 170.035156 182.84375 Z M 170.035156 179.960938 C 171.953125 179.960938 173.554688 179.320312 173.554688 178.039062 C 173.554688 176.757812 171.953125 175.796875 170.035156 175.796875 C 168.433594 175.796875 166.832031 176.757812 166.832031 178.039062 C 166.832031 179.320312 168.433594 179.960938 170.035156 179.960938 Z M 154.34375 168.113281 C 150.820312 168.113281 147.9375 170.039062 147.9375 172.914062 C 147.9375 175.476562 150.820312 177.398438 154.34375 177.398438 C 155.625 177.398438 156.90625 177.082031 157.867188 176.757812 C 157.867188 177.078125 157.867188 177.398438 157.867188 177.398438 C 157.867188 179 156.265625 180.28125 154.34375 180.28125 C 153.0625 180.28125 151.78125 179.636719 151.140625 178.679688 L 147.9375 178.679688 C 148.257812 181.242188 151.140625 182.847656 154.34375 182.847656 C 157.867188 182.847656 160.746094 180.921875 160.746094 178.359375 C 160.746094 176.117188 160.746094 174.835938 160.746094 172.914062 C 160.746094 170.035156 157.867188 168.113281 154.34375 168.113281 Z M 154.34375 170.996094 C 152.421875 170.996094 151.140625 171.953125 151.140625 172.914062 C 151.140625 174.195312 152.421875 175.15625 154.34375 175.15625 C 156.265625 175.15625 157.546875 174.195312 157.546875 172.914062 C 157.550781 171.953125 156.265625 170.996094 154.34375 170.996094 Z M 138.011719 168.113281 C 134.488281 168.113281 131.609375 170.039062 131.609375 172.59375 C 131.609375 173.5625 131.929688 174.519531 132.570312 175.15625 C 131.289062 176.117188 130.328125 177.082031 130.328125 178.359375 C 130.328125 180.921875 133.847656 182.847656 138.011719 182.847656 C 142.175781 182.847656 145.699219 180.921875 145.699219 178.359375 C 145.699219 177.082031 144.738281 176.117188 143.457031 175.15625 C 144.097656 174.515625 144.738281 173.5625 144.738281 172.59375 C 144.738281 170.035156 141.535156 168.113281 138.011719 168.113281 Z M 138.011719 176.117188 C 136.410156 176.117188 134.808594 177.082031 134.808594 178.359375 C 134.808594 179.324219 136.410156 180.285156 138.011719 180.285156 C 139.933594 180.285156 141.214844 179.324219 141.214844 178.359375 C 141.214844 177.078125 139.933594 176.117188 138.011719 176.117188 Z M 138.011719 171.316406 C 136.410156 171.316406 135.449219 171.960938 135.449219 172.914062 C 135.449219 173.871094 136.410156 174.515625 138.011719 174.515625 C 139.613281 174.515625 140.574219 173.871094 140.574219 172.914062 C 140.574219 171.960938 139.613281 171.316406 138.011719 171.316406 Z M 120.722656 168.753906 C 120.402344 170.035156 118.160156 171.308594 115.597656 171.628906 C 115.597656 172.589844 115.597656 173.230469 115.597656 173.871094 L 120.722656 173.871094 L 120.722656 183.15625 L 125.203125 183.15625 L 125.203125 168.753906 Z M 73.328125 188.925781 L 61.480469 188.925781 L 61.480469 175.480469 C 68.207031 179.320312 71.726562 183.484375 73.328125 188.925781 Z M 73.328125 188.925781 "/>
<path style=" stroke:none;fill-rule:evenodd;fill:rgb(29.411765%,0%,50.196078%);fill-opacity:1;" d="M 197.578125 102.789062 L 215.507812 102.789062 C 215.507812 108.550781 209.746094 113.355469 204.300781 117.519531 C 205.902344 117.839844 207.183594 119.441406 207.183594 121.039062 C 207.183594 122.320312 206.542969 123.28125 205.582031 123.921875 C 207.824219 124.5625 209.425781 126.484375 209.425781 128.726562 C 209.425781 131.289062 208.144531 133.210938 205.902344 133.84375 C 206.863281 134.488281 207.503906 135.769531 207.503906 136.726562 C 207.503906 138.648438 205.902344 140.25 203.980469 140.25 C 202.058594 140.25 200.457031 138.648438 200.457031 136.726562 C 200.457031 135.765625 201.097656 134.484375 202.058594 133.84375 C 200.136719 133.203125 198.539062 131.285156 198.539062 128.726562 C 198.539062 126.484375 199.816406 124.882812 202.058594 123.921875 C 201.097656 123.28125 200.457031 122.320312 200.457031 121.039062 L 200.136719 121.039062 L 200.136719 121.359375 L 199.171875 121.359375 C 189.886719 123.601562 156.90625 137.691406 182.523438 156.585938 L 105.351562 156.585938 L 177.078125 102.789062 L 154.664062 70.765625 L 154.664062 100.867188 L 130.96875 100.867188 L 130.96875 51.875 L 154.664062 51.875 L 154.664062 61.800781 L 173.554688 48.671875 L 206.859375 96.382812 Z M 203.335938 118.480469 C 202.695312 119.121094 202.054688 119.761719 201.414062 120.082031 C 201.414062 120.402344 201.09375 120.722656 201.09375 121.039062 C 201.09375 122.320312 202.375 123.601562 203.65625 123.601562 C 205.257812 123.601562 206.21875 122.320312 206.21875 121.039062 C 206.21875 119.761719 205.257812 118.480469 203.65625 118.480469 Z M 203.976562 134.167969 C 202.695312 134.167969 201.414062 135.449219 201.414062 136.730469 C 201.414062 138.328125 202.695312 139.292969 203.976562 139.292969 C 205.257812 139.292969 206.539062 138.328125 206.539062 136.730469 C 206.539062 135.449219 205.257812 134.167969 203.976562 134.167969 Z M 203.976562 124.5625 C 201.414062 124.5625 199.492188 126.164062 199.492188 128.726562 C 199.492188 131.289062 201.414062 133.53125 203.976562 133.53125 C 206.539062 133.53125 208.460938 131.289062 208.460938 128.726562 C 208.460938 126.164062 206.539062 124.5625 203.976562 124.5625 Z M 169.714844 70.445312 L 179.320312 94.785156 L 182.203125 92.542969 L 179.960938 86.777344 L 183.164062 84.214844 L 187.964844 88.378906 L 190.847656 86.457031 L 171.953125 68.847656 Z M 175.15625 76.851562 L 178.359375 83.574219 L 180.601562 81.976562 Z M 142.175781 80.375 C 140.253906 79.09375 138.011719 77.8125 138.011719 75.890625 C 138.011719 74.289062 139.613281 72.6875 141.535156 72.6875 C 143.136719 72.6875 144.738281 74.289062 144.738281 75.890625 L 147.9375 75.890625 C 147.617188 72.046875 144.738281 69.167969 141.535156 69.167969 C 138.011719 69.167969 134.808594 72.367188 135.128906 76.210938 C 135.128906 80.054688 137.050781 81.976562 141.535156 84.214844 C 143.777344 85.175781 144.738281 86.457031 144.738281 88.378906 C 144.738281 90.300781 143.136719 91.902344 141.535156 91.902344 C 139.613281 91.902344 138.011719 90.300781 138.011719 88.378906 L 135.128906 88.378906 C 135.449219 92.542969 138.011719 95.425781 141.535156 95.425781 C 145.058594 95.425781 147.617188 92.542969 147.9375 88.378906 C 147.9375 84.214844 146.65625 82.617188 142.175781 80.375 Z M 142.175781 80.375 "/>
<path style=" stroke:none;fill-rule:evenodd;fill:rgb(29.411765%,0%,50.196078%);fill-opacity:1;" d="M 61.800781 171.636719 C 58.277344 170.039062 57 159.785156 60.199219 152.421875 C 60.839844 151.460938 62.441406 150.824219 63.402344 151.78125 L 75.570312 166.515625 L 167.472656 96.390625 L 171.953125 101.832031 L 80.375 172.59375 L 88.378906 179.324219 C 84.855469 182.203125 80.375 185.722656 76.851562 188.609375 C 73.648438 178.679688 67.886719 174.195312 61.800781 171.636719 Z M 61.800781 171.636719 "/>
<path style=" stroke:none;fill-rule:evenodd;fill:rgb(29.411765%,0%,50.196078%);fill-opacity:1;" d="M 78.453125 190.847656 L 90.300781 181.882812 L 96.382812 189.566406 L 83.574219 198.851562 Z M 78.453125 190.847656 "/>
<path style=" stroke:none;fill-rule:evenodd;fill:rgb(29.411765%,0%,50.196078%);fill-opacity:1;" d="M 125.203125 25.9375 C 179.960938 25.9375 224.46875 70.765625 224.46875 125.84375 C 224.46875 180.917969 179.960938 225.746094 125.203125 225.746094 C 70.125 225.746094 25.617188 180.917969 25.617188 125.84375 C 25.617188 70.765625 70.125 25.9375 125.203125 25.9375 Z M 125.203125 27.21875 C 70.765625 27.21875 26.578125 71.40625 26.578125 125.84375 C 26.578125 180.28125 70.765625 224.464844 125.203125 224.464844 C 179.640625 224.464844 223.828125 180.277344 223.828125 125.84375 C 223.828125 71.40625 179.640625 27.21875 125.203125 27.21875 Z M 125.203125 27.21875 "/>
<path style=" stroke:none;fill-rule:evenodd;fill:rgb(29.411765%,0%,50.196078%);fill-opacity:1;" d="M 125.203125 25.9375 C 179.960938 25.9375 224.46875 70.765625 224.46875 125.84375 C 224.46875 180.917969 179.960938 225.746094 125.203125 225.746094 C 70.125 225.746094 25.617188 180.917969 25.617188 125.84375 C 25.617188 70.765625 70.125 25.9375 125.203125 25.9375 Z M 125.203125 27.21875 C 70.765625 27.21875 26.578125 71.40625 26.578125 125.84375 C 26.578125 180.28125 70.765625 224.464844 125.203125 224.464844 C 179.640625 224.464844 223.828125 180.277344 223.828125 125.84375 C 223.828125 71.40625 179.640625 27.21875 125.203125 27.21875 Z M 125.203125 27.21875 "/>
<path style=" stroke:none;fill-rule:evenodd;fill:rgb(29.411765%,0%,50.196078%);fill-opacity:1;" d="M 130.328125 0.00390625 L 130.328125 12.8125 C 131.289062 12.8125 132.570312 12.8125 133.847656 12.8125 L 135.128906 0.324219 C 138.332031 0.324219 140.253906 0.644531 143.136719 0.964844 L 141.855469 13.773438 C 143.136719 13.773438 144.417969 14.09375 145.378906 14.09375 L 148.257812 1.925781 C 151.140625 2.246094 153.0625 2.886719 156.265625 3.527344 L 153.703125 16.015625 C 154.664062 16.015625 155.945312 16.335938 156.90625 16.65625 L 160.746094 4.808594 C 163.949219 5.769531 165.550781 6.410156 168.753906 7.371094 L 164.910156 19.21875 C 165.871094 19.539062 167.152344 20.179688 168.113281 20.5 L 173.234375 8.96875 C 176.117188 10.25 177.71875 10.890625 180.601562 12.492188 L 175.796875 23.699219 C 176.757812 24.339844 178.039062 24.980469 179 25.300781 L 185.082031 14.734375 C 187.964844 16.015625 189.566406 16.976562 192.128906 18.578125 L 186.042969 29.464844 C 187.324219 30.105469 188.285156 30.746094 189.246094 31.386719 L 196.292969 21.457031 C 198.851562 23.058594 200.453125 24.019531 203.015625 25.941406 L 195.972656 36.1875 C 196.933594 37.148438 197.890625 37.789062 198.851562 38.429688 L 206.859375 29.144531 C 209.421875 31.066406 210.699219 32.347656 212.941406 34.585938 L 204.9375 43.875 C 205.898438 44.835938 206.539062 45.796875 207.5 46.433594 L 216.785156 38.109375 C 219.027344 40.671875 219.988281 41.953125 222.230469 44.195312 L 212.941406 52.839844 C 213.902344 53.480469 214.542969 54.441406 215.503906 55.402344 L 225.429688 48.035156 C 227.351562 50.597656 228.3125 52.199219 230.234375 54.761719 L 220.308594 62.125 C 220.949219 63.085938 221.589844 64.367188 222.230469 65.328125 L 233.117188 58.925781 C 234.71875 61.804688 235.675781 63.40625 236.957031 65.96875 L 226.390625 72.371094 C 227.03125 73.332031 227.671875 74.613281 227.992188 75.574219 L 239.519531 70.453125 C 240.800781 73.332031 241.441406 74.933594 242.722656 77.816406 L 231.515625 82.941406 C 231.835938 84.222656 232.476562 85.179688 232.796875 86.460938 L 244.644531 82.621094 C 245.605469 85.5 246.246094 87.101562 247.207031 90.304688 L 235.359375 94.148438 C 235.675781 95.109375 236.316406 96.710938 236.636719 97.988281 L 248.484375 95.429688 C 249.125 98.628906 249.765625 100.230469 250.085938 103.433594 L 238.238281 105.996094 C 238.558594 107.277344 238.558594 108.558594 238.878906 109.839844 L 251.046875 108.558594 C 251.367188 111.757812 251.6875 113.359375 252.007812 116.5625 L 239.839844 118.164062 C 239.839844 119.445312 239.839844 120.40625 239.839844 121.6875 L 252.007812 121.6875 C 252.328125 123.285156 252.328125 124.246094 252.328125 125.847656 C 252.328125 127.449219 252.328125 128.089844 252.328125 129.691406 L 239.839844 130.011719 C 239.839844 131.292969 239.839844 132.253906 239.839844 133.535156 L 252.007812 134.808594 C 251.6875 138.015625 251.367188 139.613281 251.046875 142.820312 L 238.878906 141.855469 C 238.558594 143.136719 238.558594 144.417969 238.238281 145.378906 L 250.085938 147.9375 C 249.765625 151.144531 249.445312 153.0625 248.484375 155.945312 L 236.636719 153.703125 C 236.316406 154.984375 235.996094 155.945312 235.359375 157.226562 L 247.207031 161.066406 C 246.246094 164.269531 245.925781 165.871094 244.644531 168.757812 L 232.796875 165.234375 C 232.476562 166.515625 231.835938 167.476562 231.515625 168.757812 L 242.722656 173.875 C 241.441406 176.757812 240.800781 178.359375 239.199219 181.242188 L 227.992188 176.117188 C 227.671875 177.082031 227.03125 178.359375 226.390625 179.324219 L 236.957031 185.402344 C 235.675781 188.285156 234.71875 189.890625 233.117188 192.449219 L 222.230469 186.371094 C 221.589844 187.328125 220.949219 188.609375 220.308594 189.570312 L 230.234375 196.617188 C 228.632812 199.496094 227.351562 200.777344 225.429688 203.339844 L 215.503906 196.296875 C 214.542969 197.257812 213.902344 198.222656 212.941406 198.859375 L 222.230469 207.183594 C 220.308594 209.746094 219.027344 211.027344 216.785156 213.265625 L 207.5 205.261719 C 206.539062 205.902344 205.898438 206.859375 204.9375 207.820312 L 213.261719 216.789062 C 211.019531 219.03125 209.421875 220.3125 207.179688 222.234375 L 198.851562 213.265625 C 197.890625 213.90625 196.933594 214.546875 195.972656 215.507812 L 203.335938 225.753906 C 200.773438 227.679688 199.492188 228.636719 196.613281 230.558594 L 189.246094 220.3125 C 188.285156 220.953125 187.324219 221.59375 186.042969 222.234375 L 192.449219 233.121094 C 189.886719 234.722656 188.285156 235.683594 185.402344 237.285156 L 179 226.398438 C 178.039062 226.714844 176.757812 227.359375 175.796875 227.996094 L 180.921875 239.207031 C 178.039062 240.488281 176.4375 241.449219 173.554688 242.410156 L 168.113281 231.203125 C 167.152344 231.519531 165.871094 232.164062 164.910156 232.480469 L 168.753906 244.328125 C 165.871094 245.292969 163.949219 245.929688 161.066406 246.890625 L 156.90625 235.042969 C 155.945312 235.363281 154.664062 235.6875 153.703125 235.6875 L 156.265625 248.175781 C 153.0625 248.820312 151.460938 249.457031 148.257812 249.777344 L 145.378906 237.609375 C 144.417969 237.609375 143.136719 237.929688 141.855469 237.929688 L 143.136719 250.738281 C 140.253906 251.058594 138.332031 251.378906 135.128906 251.378906 L 133.847656 238.890625 C 132.570312 238.890625 131.289062 238.890625 130.328125 238.890625 L 130.328125 251.699219 C 127.125 251.699219 125.203125 251.699219 122 251.699219 L 122 238.890625 C 120.722656 238.890625 119.761719 238.890625 118.480469 238.890625 L 117.199219 251.378906 C 113.996094 251.378906 112.074219 251.0625 108.871094 250.738281 L 110.472656 237.929688 C 109.191406 237.929688 107.914062 237.609375 106.632812 237.609375 L 104.070312 249.765625 C 100.867188 249.445312 99.265625 248.804688 96.0625 248.167969 L 98.625 235.675781 C 97.664062 235.675781 96.382812 235.359375 95.105469 235.03125 L 91.261719 246.878906 C 88.378906 245.921875 86.457031 245.285156 83.574219 244.320312 L 87.417969 232.472656 C 86.457031 232.15625 85.175781 231.511719 84.214844 231.195312 L 79.09375 242.722656 C 76.210938 241.441406 74.289062 240.796875 71.40625 239.199219 L 76.53125 227.988281 C 75.570312 227.347656 74.289062 226.707031 73.328125 226.390625 L 67.246094 236.957031 C 64.363281 235.675781 62.761719 234.71875 60.199219 233.117188 L 66.285156 222.230469 C 65.324219 221.589844 64.042969 220.949219 63.082031 220.308594 L 56.039062 230.230469 C 53.15625 228.632812 51.875 227.671875 49.3125 225.746094 L 56.679688 215.5 C 55.71875 214.855469 54.757812 213.898438 53.796875 213.257812 L 45.46875 222.550781 C 42.910156 220.628906 41.628906 219.347656 39.386719 217.105469 L 47.710938 207.816406 C 46.75 207.175781 45.46875 205.894531 44.828125 205.257812 L 35.542969 213.582031 C 33.300781 211.019531 32.019531 209.742188 30.101562 207.5 L 39.386719 199.171875 C 38.425781 198.210938 37.785156 197.246094 36.824219 196.292969 L 26.898438 203.65625 C 24.976562 201.09375 24.015625 199.492188 22.09375 196.933594 L 32.019531 189.566406 C 31.382812 188.605469 30.742188 187.324219 30.101562 186.363281 L 19.210938 192.765625 C 17.613281 189.886719 16.652344 188.28125 15.050781 185.71875 L 25.9375 179.320312 C 25.296875 178.355469 24.65625 177.078125 24.015625 176.113281 L 12.808594 181.238281 C 11.527344 178.355469 10.886719 176.753906 9.605469 173.871094 L 20.8125 168.753906 C 20.171875 167.472656 19.851562 166.511719 19.53125 165.230469 L 7.683594 169.070312 C 6.722656 166.191406 6.085938 164.585938 5.125 161.382812 L 16.972656 157.539062 C 16.652344 156.582031 16.011719 154.980469 15.691406 153.699219 L 3.84375 156.261719 C 2.882812 153.058594 2.5625 151.457031 2.242188 148.253906 L 14.089844 145.691406 C 13.769531 144.414062 13.449219 143.132812 13.449219 141.851562 L 1.28125 143.132812 C 0.960938 139.929688 0.640625 138.328125 0.320312 135.125 L 12.488281 133.84375 C 12.488281 132.5625 12.488281 131.285156 12.167969 130.003906 L 0 130.003906 C 0 128.402344 0 127.441406 0 125.839844 C 0 124.238281 0 123.597656 0 121.996094 L 12.167969 121.996094 C 12.488281 121.035156 12.488281 119.433594 12.488281 118.15625 L 0.320312 116.875 C 0.640625 113.671875 0.640625 112.070312 1.28125 108.867188 L 13.449219 110.148438 C 13.449219 108.867188 13.769531 107.265625 14.089844 106.308594 L 1.921875 103.746094 C 2.5625 100.542969 2.882812 98.621094 3.84375 95.738281 L 15.691406 98.300781 C 16.011719 97.019531 16.332031 95.738281 16.652344 94.457031 L 5.125 90.617188 C 6.085938 87.414062 6.402344 85.8125 7.683594 82.929688 L 19.210938 86.773438 C 19.851562 85.492188 20.171875 84.210938 20.8125 82.929688 L 9.605469 77.808594 C 10.886719 74.925781 11.527344 73.324219 12.808594 70.441406 L 24.015625 75.566406 C 24.65625 74.605469 25.296875 73.324219 25.9375 72.363281 L 15.050781 66.285156 C 16.652344 63.402344 17.613281 61.800781 19.210938 59.238281 L 29.78125 65.324219 C 30.421875 64.363281 31.382812 63.082031 32.019531 62.121094 L 22.09375 55.078125 C 23.695312 52.195312 24.65625 50.914062 26.898438 48.351562 L 36.824219 55.71875 C 37.464844 54.757812 38.425781 53.476562 39.066406 52.835938 L 30.101562 44.511719 C 32.019531 41.949219 33.300781 40.667969 35.542969 38.425781 L 44.828125 46.75 C 45.46875 45.789062 46.429688 44.828125 47.390625 43.871094 L 39.066406 34.902344 C 41.308594 32.660156 42.589844 31.382812 45.148438 29.460938 L 53.476562 38.746094 C 54.4375 37.785156 55.398438 37.144531 56.359375 36.503906 L 49.3125 26.578125 C 51.554688 24.65625 53.15625 23.695312 55.71875 21.773438 L 63.082031 31.382812 C 64.042969 30.742188 65.003906 30.101562 65.964844 29.460938 L 59.878906 18.574219 C 62.441406 16.972656 64.042969 16.011719 66.925781 14.410156 L 73.007812 25.617188 C 74.289062 24.976562 75.25 24.335938 76.53125 24.015625 L 71.40625 12.167969 C 74.289062 10.886719 75.890625 10.246094 78.773438 8.964844 L 83.894531 20.492188 C 84.855469 20.171875 86.136719 19.53125 87.417969 19.210938 L 83.574219 7.363281 C 86.457031 6.402344 88.378906 5.765625 91.261719 4.804688 L 95.105469 16.652344 C 96.382812 16.332031 97.664062 16.011719 98.625 16.011719 L 96.0625 3.523438 C 99.265625 2.882812 100.867188 2.242188 104.070312 1.921875 L 106.632812 14.089844 C 107.914062 14.089844 109.191406 13.769531 110.472656 13.769531 L 108.871094 0.960938 C 112.074219 0.640625 113.996094 0.320312 117.199219 0.320312 L 118.480469 12.808594 C 119.761719 12.808594 120.722656 12.808594 122 12.808594 L 122 0 C 125.203125 0.00390625 127.125 0.00390625 130.328125 0.00390625 Z M 230.554688 125.84375 C 230.554688 68.527344 184.125 21.773438 127.125 21.773438 C 126.804688 21.773438 126.484375 21.773438 126.164062 21.773438 C 125.84375 21.773438 125.523438 21.773438 125.203125 21.773438 C 68.207031 21.773438 21.773438 68.527344 21.773438 125.84375 C 21.773438 183.15625 68.207031 229.914062 125.203125 229.914062 C 125.523438 229.914062 125.84375 229.914062 126.164062 229.914062 C 126.484375 229.914062 126.804688 229.914062 127.125 229.914062 C 184.125 229.914062 230.554688 183.164062 230.554688 125.84375 Z M 230.554688 125.84375 "/>
</g>
</svg>
